<?xml version="1.0" encoding="UTF-8"?>
<svg id="Calque_2" data-name="Calque 2" xmlns="http://www.w3.org/2000/svg" xmlns:xlink="http://www.w3.org/1999/xlink" viewBox="0 0 440.35 113.36">
  <defs>
    <style>
      .cls-1 {
        fill: url(#Dégradé_sans_nom_3);
      }
    </style>
    <linearGradient id="Dégradé_sans_nom_3" data-name="Dégradé sans nom 3" x1="0" y1="56.68" x2="121.25" y2="56.68" gradientUnits="userSpaceOnUse">
      <stop offset="0" stop-color="#e95638"/>
      <stop offset="0" stop-color="#e95638"/>
      <stop offset=".17" stop-color="#d34f48"/>
      <stop offset=".73" stop-color="#933d78"/>
      <stop offset=".99" stop-color="#7a368b"/>
      <stop offset="1" stop-color="#7a368b"/>
    </linearGradient>
  </defs>
  <g id="Calque_1-2" data-name="Calque 1">
    <g>
      <path class="cls-1" d="M116.64,63.24V20.2c2.79-2.03,4.61-5.31,4.61-9.03,0-6.17-5-11.17-11.17-11.17s-11.17,5-11.17,11.17c0,3.71,1.82,7,4.61,9.03v29.92h-36.33v-29.92c2.79-2.03,4.61-5.31,4.61-9.03,0-6.17-5-11.17-11.17-11.17s-11.17,5-11.17,11.17c0,3.71,1.82,7,4.61,9.03v29.92H17.73v-29.92c2.79-2.03,4.61-5.31,4.61-9.03C22.34,5,17.34,0,11.17,0S0,5,0,11.17c0,3.71,1.82,7,4.61,9.03v72.96c-2.79,2.03-4.61,5.31-4.61,9.03,0,6.17,5,11.17,11.17,11.17s11.17-5,11.17-11.17c0-3.71-1.82-7-4.61-9.03v-29.92h36.33v29.92c-2.79,2.03-4.61,5.31-4.61,9.03,0,6.17,5,11.17,11.17,11.17s11.17-5,11.17-11.17c0-3.71-1.82-7-4.61-9.03v-29.92h49.45"/>
      <g>
        <path d="M161.37,38.85c1.59,0,3.08.08,4.46.24s2.69.39,3.95.68,2.48.65,3.68,1.06,2.39.87,3.6,1.37v3.83c-.96-.6-1.98-1.18-3.06-1.71-1.08-.54-2.25-1.01-3.5-1.41-1.25-.4-2.6-.72-4.03-.96-1.44-.24-2.98-.35-4.62-.35-3.36,0-6.29.35-8.8,1.06s-4.59,1.71-6.25,3.02c-1.66,1.31-2.91,2.9-3.74,4.78-.83,1.88-1.25,4-1.25,6.35,0,2.2.41,4.23,1.22,6.08.82,1.86,2.05,3.45,3.71,4.8,1.65,1.34,3.73,2.39,6.21,3.15s5.4,1.13,8.74,1.13c1.31,0,2.61-.05,3.9-.15,1.28-.1,2.5-.23,3.64-.39,1.14-.16,2.18-.34,3.12-.53s1.74-.39,2.39-.59v-10.5h-14.08v-2.95h17.23v15.21c-1.24.44-2.5.82-3.76,1.16s-2.58.62-3.93.84-2.75.4-4.21.52-2.98.18-4.57.18c-3.26,0-6.28-.37-9.07-1.1s-5.2-1.84-7.24-3.32-3.64-3.35-4.8-5.6-1.74-4.89-1.74-7.93c0-2.03.27-3.88.81-5.55s1.3-3.17,2.28-4.51,2.17-2.5,3.55-3.49,2.92-1.81,4.61-2.46,3.5-1.13,5.45-1.46,3.98-.49,6.09-.49Z"/>
        <path d="M222.82,72.27c-1.41.44-2.72.81-3.93,1.12s-2.4.56-3.58.76-2.37.34-3.59.43-2.56.14-4.02.14c-3.39,0-6.46-.41-9.19-1.23s-5.07-2-6.99-3.54-3.4-3.4-4.44-5.58-1.56-4.63-1.56-7.35.5-5.05,1.5-7.25,2.4-4.09,4.19-5.67,3.95-2.8,6.45-3.68,5.26-1.31,8.29-1.31,5.93.42,8.39,1.26,4.52,2.04,6.2,3.6,2.95,3.45,3.83,5.68,1.31,4.73,1.31,7.52v.78h-36.92c.18,2.15.72,4.09,1.61,5.82.89,1.73,2.15,3.2,3.79,4.41,1.64,1.21,3.65,2.14,6.05,2.78s5.19.97,8.38.97c1.36,0,2.74-.09,4.13-.28,1.4-.18,2.73-.43,4.01-.74,1.28-.31,2.44-.66,3.5-1.06s1.92-.8,2.6-1.22v3.65ZM222.57,55.2c-.12-1.76-.51-3.45-1.18-5.05-.67-1.6-1.68-3.02-3.01-4.24-1.33-1.23-3.03-2.2-5.09-2.92-2.06-.72-4.52-1.08-7.4-1.08-2.71,0-5.07.36-7.11,1.08-2.03.72-3.76,1.69-5.17,2.91-1.41,1.22-2.52,2.63-3.33,4.23-.81,1.6-1.32,3.29-1.54,5.07h33.82Z"/>
        <path d="M266.21,74.08v-3.83c-1.21.65-2.58,1.26-4.12,1.81s-3.16,1.03-4.86,1.44-3.45.71-5.25.93-3.56.33-5.29.33c-2.25,0-4.27-.2-6.06-.6s-3.3-1-4.55-1.8-2.2-1.79-2.87-2.97-1.01-2.56-1.01-4.12.39-2.91,1.17-4.09,1.89-2.22,3.34-3.1,3.19-1.63,5.23-2.24,4.32-1.13,6.84-1.56,5.24-.78,8.17-1.06,6.01-.51,9.25-.69v-2.64c0-1.07-.2-2.02-.6-2.85s-.97-1.54-1.69-2.15-1.57-1.12-2.54-1.54-2.03-.74-3.16-.99-2.33-.43-3.58-.54-2.51-.16-3.76-.16c-1.7,0-3.24.08-4.63.25s-2.69.4-3.9.69-2.37.63-3.48,1.02-2.22.8-3.35,1.23v-3.68c2.33-.62,4.82-1.16,7.47-1.62s5.45-.69,8.42-.69c2.52,0,4.87.21,7.05.64s4.08,1.11,5.69,2.05,2.88,2.15,3.8,3.64,1.39,3.29,1.39,5.43v23.47h-3.12ZM266.21,55.32c-5.49.3-10.19.73-14.08,1.28-3.89.55-7.07,1.23-9.54,2.04s-4.28,1.75-5.43,2.82c-1.15,1.07-1.73,2.29-1.73,3.65,0,1.11.28,2.09.84,2.95s1.37,1.57,2.43,2.15c1.06.58,2.34,1.02,3.86,1.31,1.51.29,3.21.44,5.09.44,1.11,0,2.26-.06,3.44-.19s2.37-.3,3.54-.53c1.18-.23,2.33-.5,3.48-.81,1.14-.31,2.22-.65,3.23-1.02s1.93-.76,2.76-1.18,1.53-.85,2.1-1.28v-11.63Z"/>
        <path d="M304.3,41.66c-.86-.18-1.98-.26-3.34-.26-1.88,0-3.65.23-5.3.69s-3.19,1.09-4.61,1.88-2.73,1.71-3.94,2.76-2.3,2.16-3.27,3.34v24.02h-3.15v-34.6h3.15v7.05c1.12-1.16,2.35-2.22,3.66-3.2s2.71-1.81,4.17-2.51,2.99-1.24,4.6-1.64,3.26-.59,4.97-.59c.59,0,1.12.01,1.59.04s.9.06,1.3.1.77.09,1.12.14.71.11,1.08.18v3.1c-.49-.15-1.16-.31-2.03-.49Z"/>
        <path d="M346.44,64.54c0,1.34-.18,2.51-.53,3.5s-.84,1.84-1.47,2.56-1.39,1.29-2.27,1.74-1.85.8-2.91,1.06-2.19.44-3.4.54-2.46.15-3.75.15h-19.97v-34.6h19.52c.99,0,1.98.04,2.97.13s1.94.24,2.86.47,1.76.54,2.54.94,1.46.93,2.04,1.59,1.03,1.44,1.36,2.37.49,2.01.49,3.27c0,1.12-.14,2.1-.42,2.92s-.7,1.53-1.26,2.12-1.28,1.07-2.15,1.45-1.9.68-3.07.89c1.68.12,3.11.4,4.31.86s2.17,1.06,2.92,1.81,1.31,1.66,1.66,2.71.53,2.23.53,3.54ZM340.98,48.32c0-.48-.03-.97-.1-1.45s-.22-.95-.45-1.39-.58-.86-1.02-1.24c-.44-.38-1.05-.71-1.83-.99-.77-.27-1.73-.49-2.86-.65-1.13-.16-2.5-.24-4.09-.24h-15.34v12.04h15.34c2.27,0,4.08-.16,5.44-.49s2.4-.77,3.14-1.32c.73-.55,1.21-1.2,1.44-1.93.23-.74.34-1.51.34-2.33ZM343.14,64.48c0-1.31-.23-2.42-.68-3.34s-1.15-1.68-2.09-2.26c-.94-.59-2.15-1.02-3.63-1.29-1.48-.28-3.23-.42-5.26-.42h-16.19v14.05h16.62c2.1,0,3.87-.12,5.3-.37s2.59-.64,3.48-1.18c.88-.54,1.51-1.24,1.89-2.1s.57-1.88.57-3.09Z"/>
        <path d="M396.81,56.81c0,3.11-.56,5.79-1.69,8.05-1.12,2.26-2.67,4.12-4.63,5.59-1.96,1.47-4.28,2.56-6.95,3.26-2.67.71-5.55,1.06-8.63,1.06s-6-.35-8.68-1.06c-2.68-.71-5.02-1.79-7-3.26-1.98-1.47-3.53-3.33-4.66-5.59-1.12-2.26-1.69-4.94-1.69-8.05,0-2.07.26-3.94.78-5.63s1.25-3.2,2.19-4.53c.94-1.33,2.08-2.49,3.41-3.46,1.33-.97,2.82-1.78,4.46-2.43s3.39-1.12,5.27-1.44c1.88-.31,3.85-.47,5.91-.47,3.09,0,5.96.35,8.63,1.06,2.67.71,4.98,1.79,6.95,3.26,1.96,1.47,3.51,3.33,4.63,5.59,1.12,2.26,1.69,4.94,1.69,8.05ZM393.58,56.81c0-2.45-.4-4.62-1.2-6.5-.8-1.88-1.98-3.46-3.54-4.75-1.56-1.28-3.51-2.26-5.83-2.92-2.33-.66-5.03-.99-8.1-.99s-5.78.34-8.13,1.01c-2.34.67-4.3,1.65-5.88,2.93-1.58,1.28-2.77,2.87-3.58,4.76-.81,1.89-1.21,4.04-1.21,6.46s.4,4.62,1.21,6.5c.81,1.88,2,3.46,3.58,4.75,1.58,1.28,3.54,2.26,5.88,2.92,2.34.66,5.05.99,8.13.99s5.78-.33,8.1-.99c2.33-.66,4.27-1.64,5.83-2.92,1.56-1.28,2.74-2.87,3.54-4.75.8-1.88,1.2-4.05,1.2-6.5Z"/>
        <path d="M421.44,58.44l-14.91,15.64h-3.98l16.92-17.75-16.09-16.85h3.98l14.08,14.81,14.13-14.81h3.98l-16.09,16.85,16.9,17.75h-3.95l-14.96-15.64Z"/>
      </g>
    </g>
  </g>
</svg>